<?xml version="1.0" encoding="UTF-8"?>
<svg version="1.1" xmlns="http://www.w3.org/2000/svg" width="256" height="256">
<path d="M0 0 C0.71994141 0.21430664 1.43988281 0.42861328 2.18164062 0.64941406 C34.38403848 10.42971792 61.07570384 32.89660972 77.25 62.3125 C92.87193448 91.94606027 96.10850612 129.11314231 86.35058594 161.13085938 C80.25025362 180.25766551 69.75622124 196.46034238 56 211 C55.24074219 211.82371094 54.48148438 212.64742187 53.69921875 213.49609375 C40.58098119 227.25843463 23.83800639 237.28360372 5.875 243.375 C5.20823242 243.60155273 4.54146484 243.82810547 3.85449219 244.06152344 C-8.94209585 248.11570688 -21.36408707 249.55419759 -34.6875 249.4375 C-35.42812683 249.43445862 -36.16875366 249.43141724 -36.93182373 249.42828369 C-70.75066992 249.22358565 -99.4284929 237.24752732 -124 214 C-124.82371094 213.24074219 -125.64742187 212.48148438 -126.49609375 211.69921875 C-148.92267064 190.32224764 -161.66098233 159.7485307 -162.43600464 128.97796631 C-163.07419984 92.21225939 -152.36911075 60.34532458 -126.76220703 33.30859375 C-94.91023609 0.67371537 -43.98060415 -13.61699195 0 0 Z " fill="#010101" transform="translate(163,6)"/>
<path d="M0 0 C3.72231287 0.07211406 6.17648748 0.39018011 9.01135254 2.9208374 C13.79328021 8.4860965 17.53200823 14.8197803 21.3828125 21.04296875 C22.66690623 23.04257425 23.95535688 25.03938823 25.24804688 27.03344727 C27.80562186 30.99259122 30.33865916 34.96558944 32.84863281 38.95507812 C35.63194295 43.37679341 38.45936792 47.76475041 41.34375 52.12109375 C41.71870102 52.68772232 42.09365204 53.25435089 42.47996521 53.83815002 C42.84646683 54.39179733 43.21296844 54.94544464 43.59057617 55.51586914 C45.81097747 58.87336003 48.01146256 62.24344593 50.20703125 65.6171875 C56.00021886 74.50993919 61.83910376 83.37261166 67.67880249 92.23486328 C68.93399812 94.13978127 70.18890403 96.0448902 71.44351196 97.95019531 C77.90862626 107.76761069 84.38883186 117.57400706 90.9375 127.3359375 C91.45420761 128.10698822 91.97091522 128.87803894 92.50328064 129.67245483 C94.90723016 133.25883217 97.31587814 136.84186663 99.73364258 140.41894531 C100.57910348 141.67762377 101.42440946 142.93640632 102.26953125 144.1953125 C102.99615967 145.27159912 103.72278809 146.34788574 104.47143555 147.45678711 C106.07100808 150.05234878 107.24074152 152.49013999 108.2578125 155.35546875 C106.11541028 157.25982628 104.72681957 158.28354923 101.86328125 158.72265625 C98.24834769 158.21320534 97.46396819 156.8501947 95.2578125 153.98046875 C94.47535156 152.96984375 93.69289063 151.95921875 92.88671875 150.91796875 C89.38378673 146.20643838 85.95163998 141.44259553 82.54223633 136.66308594 C78.94553083 131.6341825 75.24160113 126.70782673 71.453125 121.82202148 C62.80825388 110.66378864 54.94752896 99.10194647 47.20605469 87.3046875 C44.12618678 82.64243133 40.9762298 78.02895203 37.8203125 73.41796875 C37.21848145 72.53761963 36.61665039 71.65727051 35.99658203 70.75024414 C34.75119707 68.92856017 33.50558693 67.10703012 32.25976562 65.28564453 C28.90039607 60.3686746 25.55113815 55.44483077 22.2026062 50.52047729 C21.09899362 48.89764359 19.99493728 47.27511169 18.89086914 45.65258789 C18.21403076 44.65735107 17.53719238 43.66211426 16.83984375 42.63671875 C16.24405518 41.76080078 15.6482666 40.88488281 15.03442383 39.98242188 C13.09556001 37.11555714 11.17647942 34.23587918 9.2578125 31.35546875 C9.25194626 32.2508284 9.24608002 33.14618805 9.24003601 34.06867981 C9.18216928 42.50027337 9.11012745 50.93160032 9.02209759 59.36293507 C8.97734045 63.69774841 8.93809634 68.03246661 8.91137695 72.36743164 C8.88539695 76.54972882 8.8450328 80.7316609 8.79462624 84.91373253 C8.77792147 86.51049959 8.76642971 88.10732985 8.76019859 89.70417213 C8.75059633 91.93834473 8.72258588 94.17157566 8.69018555 96.40551758 C8.67908249 97.67792801 8.66797943 98.95033844 8.65653992 100.26130676 C8.2578125 103.35546875 8.2578125 103.35546875 6.89509583 105.26713562 C4.48683782 106.86795017 2.55488642 106.7174687 -0.3046875 106.66796875 C-1.27535156 106.66410156 -2.24601562 106.66023438 -3.24609375 106.65625 C-5.7421875 106.35546875 -5.7421875 106.35546875 -7.7421875 104.35546875 C-7.99386978 102.53760529 -7.99386978 102.53760529 -7.99615479 100.29406738 C-8.00179443 99.44437881 -8.00743408 98.59469025 -8.01324463 97.71925354 C-8.00919617 96.78516159 -8.00514771 95.85106964 -8.00097656 94.88867188 C-8.0044812 93.90648178 -8.00798584 92.92429169 -8.01159668 91.91233826 C-8.02042575 88.6537273 -8.01456066 85.39533205 -8.0078125 82.13671875 C-8.00915881 79.87992308 -8.01109906 77.62312769 -8.01361084 75.36633301 C-8.0165637 70.63172653 -8.01225923 65.8971954 -8.00292969 61.16259766 C-7.99153511 55.08247124 -7.99809371 49.00252137 -8.01007462 42.92240143 C-8.01728883 38.26083029 -8.0150073 33.59930126 -8.00981903 28.93772888 C-8.00848132 26.69534789 -8.01013447 24.45296313 -8.01477814 22.21058655 C-8.01983614 19.08104265 -8.01214329 15.95178789 -8.00097656 12.82226562 C-8.00502502 11.88817368 -8.00907349 10.95408173 -8.01324463 9.99168396 C-8.00760498 9.14199539 -8.00196533 8.29230682 -7.99615479 7.41687012 C-7.99540073 6.67650261 -7.99464668 5.9361351 -7.99386978 5.17333221 C-7.39589443 0.85424571 -3.68759583 0.53938053 0 0 Z " fill="#F8F8F8" transform="translate(87.7421875,80.64453125)"/>
<path d="M0 0 C0.86625 -0.00773437 1.7325 -0.01546875 2.625 -0.0234375 C5.4892756 0.45708242 6.20651689 1.14155895 8 3.375 C8.28069811 6.31415605 8.37872448 9.03891338 8.34057617 11.97729492 C8.34123329 13.29468407 8.34123329 13.29468407 8.34190369 14.63868713 C8.33981201 17.54450637 8.31646306 20.44975018 8.29296875 23.35546875 C8.28737415 25.36900009 8.28310341 27.38253551 8.28010559 29.39607239 C8.26864616 34.698021 8.23916945 39.99972343 8.20599365 45.30157471 C8.17531647 50.71078155 8.16160528 56.12002813 8.14648438 61.52929688 C8.11430088 72.14463947 8.06309119 82.75979927 8 93.375 C5.47852302 90.89751464 3.33786381 88.60923434 1.4921875 85.58984375 C0.84830078 84.54666992 0.84830078 84.54666992 0.19140625 83.48242188 C-0.24300781 82.76634766 -0.67742187 82.05027344 -1.125 81.3125 C-2.00233671 79.88395029 -2.87993104 78.45555876 -3.7578125 77.02734375 C-4.1408252 76.39820068 -4.52383789 75.76905762 -4.91845703 75.12084961 C-5.91177248 73.51741873 -6.95373688 71.94439468 -8 70.375 C-8.26069641 67.49084473 -8.26069641 67.49084473 -8.2746582 63.93164062 C-8.2823246 62.95797798 -8.2823246 62.95797798 -8.29014587 61.96464539 C-8.30404045 59.82008635 -8.30308549 57.67584868 -8.30078125 55.53125 C-8.30466785 54.04056682 -8.30900245 52.54988474 -8.31376648 51.0592041 C-8.32122807 47.93542896 -8.32093759 44.81176685 -8.31567383 41.68798828 C-8.30987473 37.68284725 -8.32682066 33.67816799 -8.3500185 29.67310333 C-8.36474108 26.59504487 -8.36562966 23.51709805 -8.36250877 20.43901062 C-8.36302259 18.96220484 -8.36827159 17.4853929 -8.37832069 16.00862122 C-8.39064183 13.94489393 -8.38392102 11.88207189 -8.37231445 9.81835938 C-8.37294388 8.64382202 -8.3735733 7.46928467 -8.3742218 6.25915527 C-8 3.375 -8 3.375 -6.62516785 1.49719238 C-4.36664578 -0.06233654 -2.72290145 -0.02431162 0 0 Z " fill="#F6F6F6" transform="translate(166,77.625)"/>
</svg>
