<svg xmlns="http://www.w3.org/2000/svg" width="256" height="256" viewBox="0 0 256 256" version="1.1"><path d="M 105.922 4.552 C 53.608 14.025, 12.632 55.292, 3.491 107.710 C 1.579 118.676, 1.579 139.324, 3.491 150.290 C 12.699 203.089, 53.911 244.301, 106.710 253.509 C 117.676 255.421, 138.324 255.421, 149.290 253.509 C 202.089 244.301, 243.301 203.089, 252.509 150.290 C 254.421 139.324, 254.421 118.676, 252.509 107.710 C 243.301 54.911, 202.089 13.699, 149.290 4.491 C 138.717 2.648, 116.265 2.679, 105.922 4.552 M 115.500 5.597 C 103.530 7.338, 98.237 8.537, 89.127 11.572 C 57.238 22.194, 31.331 44.769, 16.989 74.434 C 7.533 93.993, 4.556 107.060, 4.556 129 C 4.556 150.940, 7.533 164.007, 16.989 183.566 C 42.519 236.373, 102.804 263.754, 159.897 248.475 C 169.933 245.789, 186 239.288, 186 237.913 C 186 237.446, 180.693 229.962, 174.207 221.282 C 150.592 189.679, 142.925 178.883, 120.558 145.740 C 108.028 127.171, 97.376 111.732, 96.888 111.431 C 96.377 111.115, 96 126.322, 96 147.241 C 96 174.187, 95.689 183.911, 94.800 184.800 C 93.243 186.357, 83.757 186.357, 82.200 184.800 C 81.299 183.899, 81 171.324, 81 134.357 L 81 85.113 83.223 83.557 C 85.477 81.978, 89.863 81.566, 93.500 82.591 C 95.997 83.295, 92.038 77.504, 147.439 161.500 C 173.195 200.550, 194.401 232.656, 194.564 232.846 C 195.416 233.844, 205.757 225.414, 215.129 216.083 C 227.140 204.123, 235.344 192.365, 241.273 178.613 C 272.680 105.764, 230.031 23.700, 152.334 7.480 C 144.740 5.895, 121.588 4.711, 115.500 5.597 M 158.872 80.653 C 157.787 81.961, 157.436 89.018, 157.193 114.403 L 156.885 146.500 164.941 158.500 L 172.997 170.500 172.998 126.321 C 173 87.491, 172.810 81.953, 171.429 80.571 C 169.248 78.391, 160.705 78.446, 158.872 80.653" stroke="none" fill="#f5f5f5" fill-rule="evenodd"/><path d="M 115.500 5.597 C 103.530 7.338, 98.237 8.537, 89.127 11.572 C 57.238 22.194, 31.331 44.769, 16.989 74.434 C 7.533 93.993, 4.556 107.060, 4.556 129 C 4.556 150.940, 7.533 164.007, 16.989 183.566 C 42.519 236.373, 102.804 263.754, 159.897 248.475 C 169.933 245.789, 186 239.288, 186 237.913 C 186 237.446, 180.693 229.962, 174.207 221.282 C 150.592 189.679, 142.925 178.883, 120.558 145.740 C 108.028 127.171, 97.376 111.732, 96.888 111.431 C 96.377 111.115, 96 126.322, 96 147.241 C 96 174.187, 95.689 183.911, 94.800 184.800 C 93.243 186.357, 83.757 186.357, 82.200 184.800 C 81.299 183.899, 81 171.324, 81 134.357 L 81 85.113 83.223 83.557 C 85.477 81.978, 89.863 81.566, 93.500 82.591 C 95.997 83.295, 92.038 77.504, 147.439 161.500 C 173.195 200.550, 194.401 232.656, 194.564 232.846 C 195.416 233.844, 205.757 225.414, 215.129 216.083 C 227.140 204.123, 235.344 192.365, 241.273 178.613 C 272.680 105.764, 230.031 23.700, 152.334 7.480 C 144.740 5.895, 121.588 4.711, 115.500 5.597 M 158.872 80.653 C 157.787 81.961, 157.436 89.018, 157.193 114.403 L 156.885 146.500 164.941 158.500 L 172.997 170.500 172.998 126.321 C 173 87.491, 172.810 81.953, 171.429 80.571 C 169.248 78.391, 160.705 78.446, 158.872 80.653" stroke="none" fill="#050505" fill-rule="evenodd"/></svg>