<?xml version="1.0" encoding="UTF-8"?>
<svg version="1.1" xmlns="http://www.w3.org/2000/svg" width="300" height="270">
<path d="M0 0 C6.61158583 4.28478352 12.88046607 9.04283564 19 14 C20.5159375 12.824375 20.5159375 12.824375 22.0625 11.625 C32.4667653 3.86775626 42.8935578 -3.14781483 55 -8 C55.76828125 -8.33902344 56.5365625 -8.67804687 57.328125 -9.02734375 C66.89118471 -12.65528773 80.94528444 -12.91198887 90.625 -9.5625 C100.9930439 -4.34184185 108.2325481 4.53410885 112.21484375 15.27734375 C115.04215504 24.06112581 116.19547239 32.30961016 116.1875 41.5 C116.18741943 42.37132568 116.18733887 43.24265137 116.18725586 44.14038086 C116.11246673 52.7442799 115.73817793 61.78546622 113 70 C113.60078369 70.15710449 114.20156738 70.31420898 114.82055664 70.47607422 C121.45870937 72.32431653 127.3612341 74.89645872 133.4375 78.125 C134.35547363 78.61073486 135.27344727 79.09646973 136.21923828 79.59692383 C143.20425237 83.38424083 149.2934047 87.41768627 155 93 C155.65871094 93.64324219 156.31742187 94.28648438 156.99609375 94.94921875 C165.99057645 104.48530471 169.52904663 114.20101291 169.27734375 127.1015625 C168.44863618 138.75015617 162.34223278 147.25364099 154 155 C153.45754639 155.51788086 152.91509277 156.03576172 152.35620117 156.56933594 C147.23012645 161.29042206 141.8865504 164.54959758 135.6875 167.6875 C134.81416016 168.14705078 133.94082031 168.60660156 133.04101562 169.08007812 C126.8641153 172.26624967 120.57936464 174.76996166 114 177 C114.06058594 177.57331055 114.12117187 178.14662109 114.18359375 178.73730469 C116.6954645 202.82228072 118.63539341 227.64759971 103 248 C96.91852404 254.61807678 89.10169785 258.68597016 80.12890625 259.23828125 C58.45100516 259.76997636 41.90450639 250.7564349 25 238 C24.20851562 237.40703125 23.41703125 236.8140625 22.6015625 236.203125 C22.07304687 235.80609375 21.54453125 235.4090625 21 235 C17.84851109 236.39216258 15.22819319 238.25921552 12.4831543 240.32592773 C-4.72829616 253.22663599 -22.35669017 260.14694674 -44 259 C-53.30803108 257.54523488 -60.90408927 252.91623026 -66.8125 245.625 C-74.32190506 235.20201515 -77.33386941 223.78138061 -78 211 C-78.04125 210.27039063 -78.0825 209.54078125 -78.125 208.7890625 C-78.39037586 199.06967153 -77.50815167 188.4157405 -75 179 C-75.83144531 178.90976563 -76.66289063 178.81953125 -77.51953125 178.7265625 C-81.6584485 177.8625461 -84.95285669 176.30520957 -88.6875 174.375 C-89.39084473 174.015271 -90.09418945 173.65554199 -90.81884766 173.28491211 C-107.56342217 164.59907036 -124.24806865 152.77951948 -130.61328125 134.2109375 C-132.58136673 122.95905484 -131.7531827 111.98492537 -125.26953125 102.45703125 C-113.70710322 87.20201143 -95.96756595 76.33787429 -78 70 C-77.01 70 -76.02 70 -75 70 C-75.19916016 69.12601563 -75.19916016 69.12601563 -75.40234375 68.234375 C-79.59475817 48.77177957 -80.58445899 25.07618918 -70.4296875 7.2421875 C-53.50886815 -18.17698058 -23.52794948 -14.05441871 0 0 Z " fill="#55C1DE" transform="translate(131,11)"/>
<path d="M0 0 C6.61158583 4.28478352 12.88046607 9.04283564 19 14 C20.5159375 12.824375 20.5159375 12.824375 22.0625 11.625 C32.4667653 3.86775626 42.8935578 -3.14781483 55 -8 C55.76828125 -8.33902344 56.5365625 -8.67804687 57.328125 -9.02734375 C66.89118471 -12.65528773 80.94528444 -12.91198887 90.625 -9.5625 C100.9930439 -4.34184185 108.2325481 4.53410885 112.21484375 15.27734375 C115.04215504 24.06112581 116.19547239 32.30961016 116.1875 41.5 C116.18741943 42.37132568 116.18733887 43.24265137 116.18725586 44.14038086 C116.11246673 52.7442799 115.73817793 61.78546622 113 70 C113.60078369 70.15710449 114.20156738 70.31420898 114.82055664 70.47607422 C121.45870937 72.32431653 127.3612341 74.89645872 133.4375 78.125 C134.35547363 78.61073486 135.27344727 79.09646973 136.21923828 79.59692383 C143.20425237 83.38424083 149.2934047 87.41768627 155 93 C155.65871094 93.64324219 156.31742187 94.28648438 156.99609375 94.94921875 C165.99057645 104.48530471 169.52904663 114.20101291 169.27734375 127.1015625 C168.44863618 138.75015617 162.34223278 147.25364099 154 155 C153.45754639 155.51788086 152.91509277 156.03576172 152.35620117 156.56933594 C147.23012645 161.29042206 141.8865504 164.54959758 135.6875 167.6875 C134.81416016 168.14705078 133.94082031 168.60660156 133.04101562 169.08007812 C126.8641153 172.26624967 120.57936464 174.76996166 114 177 C114.06058594 177.57331055 114.12117187 178.14662109 114.18359375 178.73730469 C116.6954645 202.82228072 118.63539341 227.64759971 103 248 C96.91852404 254.61807678 89.10169785 258.68597016 80.12890625 259.23828125 C58.45100516 259.76997636 41.90450639 250.7564349 25 238 C24.20851562 237.40703125 23.41703125 236.8140625 22.6015625 236.203125 C22.07304687 235.80609375 21.54453125 235.4090625 21 235 C17.84851109 236.39216258 15.22819319 238.25921552 12.4831543 240.32592773 C-4.72829616 253.22663599 -22.35669017 260.14694674 -44 259 C-53.30803108 257.54523488 -60.90408927 252.91623026 -66.8125 245.625 C-74.32190506 235.20201515 -77.33386941 223.78138061 -78 211 C-78.04125 210.27039063 -78.0825 209.54078125 -78.125 208.7890625 C-78.39037586 199.06967153 -77.50815167 188.4157405 -75 179 C-75.83144531 178.90976563 -76.66289063 178.81953125 -77.51953125 178.7265625 C-81.6584485 177.8625461 -84.95285669 176.30520957 -88.6875 174.375 C-89.39084473 174.015271 -90.09418945 173.65554199 -90.81884766 173.28491211 C-107.56342217 164.59907036 -124.24806865 152.77951948 -130.61328125 134.2109375 C-132.58136673 122.95905484 -131.7531827 111.98492537 -125.26953125 102.45703125 C-113.70710322 87.20201143 -95.96756595 76.33787429 -78 70 C-77.01 70 -76.02 70 -75 70 C-75.19916016 69.12601563 -75.19916016 69.12601563 -75.40234375 68.234375 C-79.59475817 48.77177957 -80.58445899 25.07618918 -70.4296875 7.2421875 C-53.50886815 -18.17698058 -23.52794948 -14.05441871 0 0 Z M20 33 C16.26916213 31.40232355 13.60080145 29.03815161 10.5625 26.375 C1.39698849 18.55556206 -8.79445616 12.45459216 -20 8 C-21.36898437 7.45472656 -21.36898437 7.45472656 -22.765625 6.8984375 C-30.23653634 4.82318435 -39.59381737 4.47321998 -46.96484375 7.02734375 C-55.07265973 12.03062848 -59.07291504 19.88307041 -61.39355469 28.84448242 C-62.49343079 34.56746897 -62.48358667 40.25135474 -62.4375 46.0625 C-62.43427734 47.32860107 -62.43105469 48.59470215 -62.42773438 49.89916992 C-62.27828428 60.01861639 -60.90147558 69.32409707 -58 79 C-58.6084375 79.13535156 -59.216875 79.27070312 -59.84375 79.41015625 C-78.9217706 84.09549366 -99.24282677 94.01693088 -110.72265625 110.46875 C-114.14915667 116.50091787 -115.18964287 122.1472638 -114 129 C-109.5460125 143.00129085 -97.31875316 152.12743245 -85 159 C-76.70979151 163.25797563 -68.04536766 166.71691441 -59 169 C-59.2165625 169.79535156 -59.433125 170.59070313 -59.65625 171.41015625 C-61.92430522 181.2278953 -62.33604917 190.89157928 -62.375 200.9375 C-62.38623901 201.94950974 -62.38623901 201.94950974 -62.39770508 202.98196411 C-62.46944 210.86599122 -62.18817309 217.73050287 -59 225 C-58.70988037 225.71905518 -58.41976074 226.43811035 -58.12084961 227.17895508 C-55.49898564 233.49090847 -50.74678085 238.10464352 -44.66796875 241.1796875 C-41.42455924 242.17692908 -38.64167515 242.26507411 -35.25 242.25 C-33.52523437 242.25773437 -33.52523437 242.25773437 -31.765625 242.265625 C-23.58320251 241.68844167 -17.01034572 239.43475404 -9.8125 235.5625 C-8.99386475 235.12728027 -8.17522949 234.69206055 -7.33178711 234.24365234 C1.18433567 229.57494028 9.62019477 223.90216732 16.12890625 216.6171875 C18 215 18 215 19.98046875 215.00390625 C22.5709467 216.28160814 24.25043048 217.9110448 26.3125 219.9375 C35.53931074 228.4702586 46.22390597 235.5209785 58 240 C58.92941406 240.36351562 59.85882813 240.72703125 60.81640625 241.1015625 C67.82430509 243.07925174 77.80593461 243.49996813 84.5625 240.5 C93.13934674 235.10397059 97.66693284 226.52244203 100.0859375 216.96484375 C101.28880946 211.31952717 101.34121373 205.75379044 101.3125 200 C101.31048584 198.90872803 101.30847168 197.81745605 101.30639648 196.69311523 C101.18162725 181.9688032 101.18162725 181.9688032 97 168 C97.91265625 167.79697266 97.91265625 167.79697266 98.84375 167.58984375 C117.40020833 163.0325959 138.29483733 153.4199625 148.5625 136.625 C152.20702494 130.12060706 152.81022394 124.39329342 152 117 C150.79461723 113.61765439 149.10329216 110.89624455 147 108 C146.40058594 107.11248047 146.40058594 107.11248047 145.7890625 106.20703125 C134.83174346 91.69688452 114.49905785 84.84966597 98 79 C98.14288854 77.29141784 98.28946089 75.5831436 98.4375 73.875 C98.55931641 72.44800781 98.55931641 72.44800781 98.68359375 70.9921875 C99 68 99 68 99.50488281 65.24707031 C100.3286852 59.84442155 100.26375639 54.41565148 100.29516602 48.96191406 C100.30663365 47.58127552 100.32700238 46.20067947 100.35668945 44.8203125 C100.6179022 32.63233004 99.2387187 21.47785018 91.03125 11.9140625 C85.6545326 6.84754033 80.10324119 4.72387641 72.75 4.375 C52.17306088 5.26964953 34.77067233 19.94684771 20 33 Z " fill="#FDFEFE" transform="translate(131,11)"/>
<path d="M0 0 C3.29019993 0.15029006 6.55364176 0.14372509 9.84667969 0.11645508 C24.62392003 0.26545186 24.62392003 0.26545186 30.03076172 4.08398438 C32.18208754 6.94262035 33.58416179 9.69197745 35.02636719 12.9621582 C36.27088582 15.10405239 37.52901555 17.23808894 38.79980469 19.36450195 C40.00762892 21.53884644 41.20813782 23.71727029 42.40136719 25.8996582 C43.32369141 27.56351563 43.32369141 27.56351563 44.26464844 29.26098633 C45.86473467 32.15479655 47.45952542 35.05021839 49.02636719 37.9621582 C49.61671753 39.02237183 49.61671753 39.02237183 50.21899414 40.10400391 C51.59677548 43.27494246 50.80575987 45.65399363 50.02636719 48.9621582 C48.78562691 51.99104554 47.28171731 54.84110938 45.71386719 57.7121582 C45.27453857 58.52475098 44.83520996 59.33734375 44.38256836 60.17456055 C42.9525185 62.78343191 41.49512405 65.37489383 40.02636719 67.9621582 C39.52008789 68.85902344 39.01380859 69.75588867 38.4921875 70.67993164 C36.97253403 73.33573887 35.41447757 75.96422886 33.83886719 78.5871582 C33.36473389 79.41054687 32.89060059 80.23393555 32.40209961 81.08227539 C31.69984253 82.21777832 31.69984253 82.21777832 30.98339844 83.3762207 C30.58096924 84.0460498 30.17854004 84.71587891 29.76391602 85.40600586 C25.50247729 89.22255924 18.1700881 88.12180219 12.71386719 88.13012695 C11.94131592 88.13345535 11.16876465 88.13678375 10.37280273 88.14021301 C8.7491922 88.1452463 7.12557145 88.14762246 5.50195312 88.14746094 C3.03335438 88.149652 0.56519989 88.1678583 -1.90332031 88.18676758 C-3.4892563 88.18970146 -5.07519439 88.19168629 -6.66113281 88.19262695 C-7.39050049 88.19981247 -8.11986816 88.20699799 -8.87133789 88.21440125 C-13.55830471 88.19373101 -17.57399729 87.59323758 -21.97363281 85.9621582 C-23.91513516 83.77081911 -25.29963389 81.92617628 -26.78613281 79.4621582 C-27.20064697 78.80868408 -27.61516113 78.15520996 -28.04223633 77.48193359 C-32.63683818 70.12832473 -36.88747477 62.54096632 -40.94580078 54.87963867 C-41.86367363 53.16729345 -42.83886497 51.48595873 -43.82128906 49.80981445 C-45.29466652 46.16882406 -45.12252994 44.72218517 -43.97363281 40.9621582 C-42.52686726 37.62451781 -40.86688792 34.423831 -39.16113281 31.2121582 C-38.74154297 30.38844727 -38.32195312 29.56473633 -37.88964844 28.71606445 C-36.9310219 26.8915377 -35.92498832 25.0914838 -34.88427734 23.3125 C-33.37582701 20.66741133 -32.06596384 18.05306101 -30.76220703 15.30908203 C-23.43142625 1.07541855 -15.49050286 -0.74890175 0 0 Z " fill="#FCFEFE" transform="translate(146.9736328125,90.037841796875)"/>
<path d="M0 0 C0.16870605 0.5256958 0.33741211 1.0513916 0.51123047 1.59301758 C2.81524365 8.65050084 5.48863562 15.54380311 8.21484375 22.44726562 C12.69843707 34.0088911 12.69843707 34.0088911 11.03125 38.76171875 C10.5259375 39.72722656 10.020625 40.69273437 9.5 41.6875 C6.65249658 47.44934965 4.31314889 53.26971253 2.125 59.3125 C1.81498047 60.16739014 1.50496094 61.02228027 1.18554688 61.90307617 C0.45272799 63.93383639 -0.27427884 65.9666925 -1 68 C-17.50284042 64.2600536 -35.15054757 56.41354015 -45.625 42.625 C-48.5261024 37.80917002 -49.29119888 33.49427385 -48 28 C-41.99107897 14.84794394 -24.18926052 7.56359123 -11.4140625 2.609375 C-3.82482394 0 -3.82482394 0 0 0 Z " fill="#FCFEFE" transform="translate(77,101)"/>
<path d="M0 0 C5.43147985 17.07036524 6.44281861 35.74791991 -0.4375 52.5 C-2.80217328 56.28347725 -4.72644672 58.57548224 -9 60 C-21.95250288 61.7204463 -34.70689741 54.24457045 -44.75927734 46.67529297 C-46.5719818 45.24785526 -48.35465462 43.79209613 -50.125 42.3125 C-50.96019165 41.61713135 -50.96019165 41.61713135 -51.81225586 40.90771484 C-54.5820568 38.51465506 -56.68851672 36.45681087 -58 33 C-57.33355469 32.23558594 -56.66710937 31.47117188 -55.98046875 30.68359375 C-55.54186523 30.1736084 -55.10326172 29.66362305 -54.65136719 29.13818359 C-53.65958266 27.9859536 -52.66131008 26.83928217 -51.65722656 25.69775391 C-48.96211923 22.57025397 -46.63353664 19.51788379 -44.62890625 15.90234375 C-38.97215261 6.06594991 -38.97215261 6.06594991 -33.44726562 4.08447266 C-27.63406292 2.81320556 -21.81077183 2.4544707 -15.87890625 2.20458984 C-11.91657344 1.92300615 -8.08777757 1.19416733 -4.19726562 0.41333008 C-2 0 -2 0 0 0 Z " fill="#FCFEFE" transform="translate(217,182)"/>
<path d="M0 0 C7.08750036 0.77843885 14.17071726 1.58746297 21.25 2.4375 C22.84328125 2.62022461 22.84328125 2.62022461 24.46875 2.80664062 C26.00789063 2.99323242 26.00789063 2.99323242 27.578125 3.18359375 C28.50012695 3.29243896 29.42212891 3.40128418 30.37207031 3.51342773 C36.69371136 4.68390624 39.46601262 7.30793211 43.1875 12.375 C44.14419579 13.63666006 45.10256648 14.89705161 46.0625 16.15625 C46.54589844 16.79433594 47.02929688 17.43242187 47.52734375 18.08984375 C49.83572983 21.08401031 52.25415002 23.98212005 54.6875 26.875 C55.51636719 27.86242187 56.34523437 28.84984375 57.19921875 29.8671875 C57.79347656 30.57101563 58.38773438 31.27484375 59 32 C53.76648152 44.09583609 36.2366354 52.48522747 24.62109375 57.125 C19.20113094 58.93434675 13.68799057 59.84415408 8 59 C1.85983437 55.52443455 0.07678199 50.54985088 -2 44 C-2.29390625 43.09121094 -2.29390625 43.09121094 -2.59375 42.1640625 C-3.20060964 38.93136786 -3.19088128 35.71471645 -3.1875 32.4375 C-3.18741943 31.70313721 -3.18733887 30.96877441 -3.18725586 30.2121582 C-3.08777782 20.25493031 -2.56727841 9.64710951 0 0 Z " fill="#FDFEFE" transform="translate(83,183)"/>
<path d="M0 0 C4.98619037 3.19116183 7.85872045 9.15440669 9.53710938 14.80981445 C12.51830327 28.91545288 9.95367644 45.07552537 7 59 C0.83339707 58.55450397 -5.12412972 57.9066052 -11.14453125 56.48046875 C-14.13566582 55.89747252 -14.13566582 55.89747252 -17.76171875 55.98828125 C-27.81678942 55.85179801 -27.81678942 55.85179801 -31.76269531 52.50488281 C-35.21060369 48.6614131 -37.97593531 44.37480589 -40.70996094 40.00732422 C-42.51337151 37.20118461 -44.52563078 34.65473188 -46.625 32.0625 C-47.54152344 30.90427734 -47.54152344 30.90427734 -48.4765625 29.72265625 C-49.90407362 27.89223527 -49.90407362 27.89223527 -52 27 C-48.13473617 17.14470743 -33.67565077 9.85448945 -25 5 C-24.08476562 4.47019531 -23.16953125 3.94039062 -22.2265625 3.39453125 C-15.01957735 -0.37804016 -8.05560866 -1.25997982 0 0 Z " fill="#FDFEFE" transform="translate(210,28)"/>
<path d="M0 0 C14.95340295 4.08936959 29.32427089 13.80853519 40 25 C38.00804309 29.88389436 34.18049183 33.53518755 30.72167969 37.41894531 C27.42003709 41.18137304 24.79944798 44.92279793 22.25 49.25 C19.80983864 52.6984925 18.61497822 53.82074626 14.515625 55.015625 C11.08297453 55.52318639 7.6451921 55.68286555 4.18164062 55.83886719 C0.47912093 56.11232992 -3.11859848 56.87725989 -6.75 57.625 C-10.56713351 58.40317891 -14.07410149 59 -18 59 C-20.80089556 48.98429757 -22.40351861 39.4263412 -22.4375 29 C-22.44716797 28.05825928 -22.45683594 27.11651855 -22.46679688 26.14624023 C-22.36035977 17.26265547 -20.62840438 9.03550547 -15 2 C-10.24889735 -1.16740177 -5.5584185 -0.62115967 0 0 Z " fill="#FDFEFE" transform="translate(102,28)"/>
<path d="M0 0 C15.96301434 1.73955925 34.06312208 11.03725529 44.76953125 22.97265625 C47.23217347 26.38507783 48.37507697 29.19959786 48.25 33.4375 C46.65044607 41.76374948 40.58027584 46.8437651 34 51.625 C24.7586451 57.87157157 11.30403419 66 0 66 C-0.36351562 64.93523437 -0.72703125 63.87046875 -1.1015625 62.7734375 C-4.02313979 54.30860588 -7.14828009 46.03285325 -10.80078125 37.85546875 C-11.19652344 36.91316406 -11.59226563 35.97085938 -12 35 C-12.28359375 34.36320312 -12.5671875 33.72640625 -12.859375 33.0703125 C-13.09496082 29.60196578 -11.39213201 26.74910848 -9.9375 23.6875 C-9.28692259 22.26529986 -8.6385388 20.84209452 -7.9921875 19.41796875 C-7.66057617 18.6914209 -7.32896484 17.96487305 -6.98730469 17.21630859 C-5.41351497 13.68345424 -3.98268906 10.09679734 -2.5625 6.5 C-2.3039624 5.84733154 -2.0454248 5.19466309 -1.77905273 4.5222168 C-1.18375168 3.01571152 -0.59150059 1.50800151 0 0 Z " fill="#FDFEFE" transform="translate(224,102)"/>
<path d="M0 0 C4.79468338 2.73647783 7.78564336 6.28121997 10.5625 11 C10.93503906 11.62519531 11.30757812 12.25039062 11.69140625 12.89453125 C13.86889702 18.15761432 13.36518158 24.50238565 11.65234375 29.83203125 C8.06267339 37.53077765 3.38272356 41.60934751 -4.4375 45 C-11.84675438 46.04233356 -19.06554098 45.92816213 -25.46484375 41.765625 C-30.40199662 37.34662877 -34.92856715 31.369552 -35.7109375 24.65234375 C-35.98321293 17.37421198 -34.81205183 11.92324374 -30.4375 6 C-21.83718218 -2.26895707 -11.33007242 -5.1312486 0 0 Z " fill="#55C1DE" transform="translate(161.4375,113)"/>
<path d="M0 0 C2.54121415 2.24846198 3.67504066 4.20090345 4.82421875 7.37890625 C5.13037109 8.21744141 5.43652344 9.05597656 5.75195312 9.91992188 C6.21504883 11.22799805 6.21504883 11.22799805 6.6875 12.5625 C7.00783203 13.43841797 7.32816406 14.31433594 7.65820312 15.21679688 C10 21.70292511 10 21.70292511 10 24 C6.93852743 24.50642925 3.87567701 25.00399322 0.8125 25.5 C-0.05181641 25.64308594 -0.91613281 25.78617188 -1.80664062 25.93359375 C-5.90526577 26.59314262 -9.83226024 27.20709266 -14 27 C-12.48221269 21.56701132 -9.9029368 17.15240456 -7 12.375 C-6.10304257 10.88348793 -5.20717176 9.39132174 -4.3125 7.8984375 C-3.91675781 7.24536621 -3.52101562 6.59229492 -3.11328125 5.91943359 C-1.98975459 3.98233566 -0.98037202 2.01278433 0 0 Z " fill="#F8FCFD" transform="translate(204,148)"/>
<path d="M0 0 C4.24766861 3.63521407 6.51572708 8.15310134 9.125 13 C9.56714844 13.80695313 10.00929688 14.61390625 10.46484375 15.4453125 C12.37119364 18.93548783 14.23659294 22.43513394 16 26 C7.65474478 26.51917486 0.08961486 24.95829294 -8 23 C-6.41634626 14.817789 -3.80278019 7.41881672 0 0 Z " fill="#F7FCFD" transform="translate(95,149)"/>
<path d="M0 0 C4.33037273 1.5802782 6.78499113 4.92750261 9.625 8.375 C10.11484375 8.9525 10.6046875 9.53 11.109375 10.125 C13.5717701 13.0718007 15.24853551 15.49707102 17 19 C6.77 19 -3.46 19 -14 19 C-12.13688141 15.27376282 -10.2172828 12.67353346 -7.5625 9.5 C-4.96374287 6.38320397 -2.40048625 3.27268865 0 0 Z " fill="#F4FBFD" transform="translate(149,62)"/>
<path d="M0 0 C10.23 0 20.46 0 31 0 C22.9 10.8 22.9 10.8 20.8125 13.5 C20.15894531 14.3559375 19.50539062 15.211875 18.83203125 16.09375 C18.22746094 16.7228125 17.62289062 17.351875 17 18 C14 18 14 18 12.58959961 16.77832031 C12.11530518 16.21725586 11.64101074 15.65619141 11.15234375 15.078125 C10.62962891 14.46453125 10.10691406 13.8509375 9.56835938 13.21875 C8.76108398 12.24421875 8.76108398 12.24421875 7.9375 11.25 C7.39544922 10.61578125 6.85339844 9.9815625 6.29492188 9.328125 C3.68973027 6.2366739 1.83575975 3.6715195 0 0 Z " fill="#FBFDFE" transform="translate(135,189)"/>
<path d="M0 0 C-1.70705103 4.86075547 -4.30465907 9.1005342 -6.9375 13.5 C-7.38029297 14.24636719 -7.82308594 14.99273437 -8.27929688 15.76171875 C-10.5078843 19.51477955 -12.75102113 23.25912426 -15 27 C-17.13893584 24.86106416 -17.70116923 23.52090732 -18.7265625 20.71875 C-19.0359375 19.87699219 -19.3453125 19.03523438 -19.6640625 18.16796875 C-20.13972656 16.84732422 -20.13972656 16.84732422 -20.625 15.5 C-20.94984375 14.61957031 -21.2746875 13.73914063 -21.609375 12.83203125 C-24 6.27287946 -24 6.27287946 -24 4 C-20.75128084 3.32698711 -17.50083621 2.6627049 -14.25 2 C-12.86941406 1.71382813 -12.86941406 1.71382813 -11.4609375 1.421875 C-10.57148437 1.24140625 -9.68203125 1.0609375 -8.765625 0.875 C-7.94868164 0.70742187 -7.13173828 0.53984375 -6.29003906 0.3671875 C-4 0 -4 0 0 0 Z " fill="#F9FCFD" transform="translate(111,94)"/>
<path d="M0 0 C8.06510168 -0.49155247 15.21726112 0.95062675 23 3 C22.26365822 7.62713538 20.70883988 11.82489672 19.0625 16.1875 C18.79759766 16.91130859 18.53269531 17.63511719 18.25976562 18.38085938 C16.24514044 23.75485956 16.24514044 23.75485956 14 26 C13.71801758 25.48614746 13.43603516 24.97229492 13.14550781 24.44287109 C11.84976582 22.08538473 10.54991698 19.73018666 9.25 17.375 C8.8065625 16.56675781 8.363125 15.75851563 7.90625 14.92578125 C5.94195458 11.37271748 3.97733021 7.88339568 1.671875 4.5390625 C0 2 0 2 0 0 Z " fill="#FAFDFE" transform="translate(190,95)"/>
</svg>
